<svg xmlns="http://www.w3.org/2000/svg" width="1200" height="630" viewBox="0 0 1200 630" role="img" aria-label="OpenClaw documentation">
  <defs>
    <linearGradient id="lobster-grad" x1="0" y1="0" x2="1" y2="1">
      <stop offset="0" stop-color="#ff4d4d"/>
      <stop offset="1" stop-color="#991b1b"/>
    </linearGradient>
    <symbol id="lobster" viewBox="0 0 120 120" overflow="visible">
      <path d="M60 10 C30 10 15 35 15 55 C15 75 30 95 45 100 L45 110 L55 110 L55 100 C55 100 60 102 65 100 L65 110 L75 110 L75 100 C90 95 105 75 105 55 C105 35 90 10 60 10Z" fill="url(#lobster-grad)"/>
      <path d="M20 45 C5 40 0 50 5 60 C10 70 20 65 25 55 C28 48 25 45 20 45Z" fill="url(#lobster-grad)"/>
      <path d="M100 45 C115 40 120 50 115 60 C110 70 100 65 95 55 C92 48 95 45 100 45Z" fill="url(#lobster-grad)"/>
      <path d="M45 15 Q35 5 30 8" stroke="#ff4d4d" stroke-width="2.5" stroke-linecap="round" fill="none"/>
      <path d="M75 15 Q85 5 90 8" stroke="#ff4d4d" stroke-width="2.5" stroke-linecap="round" fill="none"/>
      <circle cx="45" cy="35" r="6" fill="#101012"/>
      <circle cx="75" cy="35" r="6" fill="#101012"/>
      <circle cx="46" cy="34" r="2.5" fill="#00e5cc"/>
      <circle cx="76" cy="34" r="2.5" fill="#00e5cc"/>
    </symbol>
  </defs>

  <rect width="1200" height="630" fill="#101012"/>
  <rect x="0" y="0" width="1200" height="4" fill="#f5654a"/>
  <line x1="78" y1="498" x2="1122" y2="498" stroke="#2f2f34" stroke-width="1"/>

  <g transform="translate(78 78)">
    <rect width="22" height="22" fill="#f5654a"/>
    <text x="36" y="17" font-family="'JetBrains Mono', monospace" font-size="18" font-weight="700" fill="#9a9aa2" letter-spacing="0.18em">DOCS.OPENCLAW.AI</text>
  </g>

  <g transform="translate(78 168)">
    <use href="#lobster" width="320" height="320"/>
  </g>

  <g transform="translate(440 226)">
    <text font-family="Switzer, sans-serif" font-size="124" font-weight="700" fill="#ededed" letter-spacing="-3.5">OpenClaw</text>
    <text y="68" font-family="Switzer, sans-serif" font-size="34" font-weight="400" fill="#ededed" letter-spacing="-0.4">Bridge any chat app to your</text>
    <text y="112" font-family="Switzer, sans-serif" font-size="34" font-weight="400" fill="#ededed" letter-spacing="-0.4">AI coding agent.</text>
    <text y="166" font-family="'JetBrains Mono', monospace" font-size="18" font-weight="400" fill="#9a9aa2" letter-spacing="0.04em">Slack · Discord · iMessage · Matrix · WhatsApp · Teams</text>
  </g>

  <g transform="translate(78 524)">
    <rect width="10" height="10" fill="#f5654a"/>
    <text x="22" y="9" font-family="'JetBrains Mono', monospace" font-size="20" font-weight="700" fill="#ededed">docs.openclaw.ai</text>
    <text x="22" y="40" font-family="'JetBrains Mono', monospace" font-size="16" font-weight="400" fill="#9a9aa2">Install · Quickstart · Channels · Gateway · CLI</text>
  </g>

  <g transform="translate(1122 524)" opacity="0.85" text-anchor="end">
    <text font-family="'JetBrains Mono', monospace" font-size="14" font-weight="700" fill="#4fc8ae" letter-spacing="0.18em">v1 · MIT</text>
    <text y="28" font-family="'JetBrains Mono', monospace" font-size="14" font-weight="400" fill="#9a9aa2">github.com/openclaw/openclaw</text>
  </g>
</svg>
