<svg xmlns="http://www.w3.org/2000/svg" width="1200" height="630" viewBox="0 0 1200 630" role="img" aria-label="OpenClaw documentation">
  <defs>
    <symbol id="lobster" viewBox="0 0 16 16" overflow="visible">
      <g shape-rendering="crispEdges">
        <g fill="#33130e">
          <rect x="1" y="5" width="1" height="3"/>
          <rect x="2" y="4" width="1" height="1"/>
          <rect x="2" y="8" width="1" height="1"/>
          <rect x="3" y="3" width="1" height="1"/>
          <rect x="3" y="9" width="1" height="1"/>
          <rect x="4" y="2" width="1" height="1"/>
          <rect x="4" y="10" width="1" height="1"/>
          <rect x="5" y="2" width="6" height="1"/>
          <rect x="11" y="2" width="1" height="1"/>
          <rect x="12" y="3" width="1" height="1"/>
          <rect x="12" y="9" width="1" height="1"/>
          <rect x="13" y="4" width="1" height="1"/>
          <rect x="13" y="8" width="1" height="1"/>
          <rect x="14" y="5" width="1" height="3"/>
          <rect x="5" y="11" width="6" height="1"/>
          <rect x="4" y="12" width="1" height="1"/>
          <rect x="11" y="12" width="1" height="1"/>
          <rect x="3" y="13" width="1" height="1"/>
          <rect x="12" y="13" width="1" height="1"/>
          <rect x="5" y="14" width="6" height="1"/>
        </g>
        <g fill="#f5654a">
          <rect x="5" y="3" width="6" height="1"/>
          <rect x="4" y="4" width="8" height="1"/>
          <rect x="3" y="5" width="10" height="1"/>
          <rect x="3" y="6" width="10" height="1"/>
          <rect x="3" y="7" width="10" height="1"/>
          <rect x="4" y="8" width="8" height="1"/>
          <rect x="5" y="9" width="6" height="1"/>
          <rect x="5" y="12" width="6" height="1"/>
          <rect x="6" y="13" width="4" height="1"/>
        </g>
        <g fill="#ff8f78">
          <rect x="1" y="6" width="2" height="1"/>
          <rect x="2" y="5" width="1" height="1"/>
          <rect x="2" y="7" width="1" height="1"/>
          <rect x="13" y="6" width="2" height="1"/>
          <rect x="13" y="5" width="1" height="1"/>
          <rect x="13" y="7" width="1" height="1"/>
        </g>
        <g fill="#081016">
          <rect x="6" y="5" width="1" height="1"/>
          <rect x="9" y="5" width="1" height="1"/>
        </g>
        <g fill="#f5fbff">
          <rect x="6" y="4" width="1" height="1"/>
          <rect x="9" y="4" width="1" height="1"/>
        </g>
      </g>
    </symbol>
  </defs>

  <rect width="1200" height="630" fill="#101012"/>
  <rect x="0" y="0" width="1200" height="4" fill="#f5654a"/>
  <line x1="78" y1="498" x2="1122" y2="498" stroke="#2f2f34" stroke-width="1"/>

  <g transform="translate(78 78)">
    <rect width="22" height="22" fill="#f5654a"/>
    <text x="36" y="17" font-family="'JetBrains Mono', monospace" font-size="18" font-weight="700" fill="#9a9aa2" letter-spacing="0.18em">DOCS.OPENCLAW.AI</text>
  </g>

  <g transform="translate(78 168)">
    <use href="#lobster" width="320" height="320"/>
  </g>

  <g transform="translate(440 226)">
    <text font-family="Switzer, sans-serif" font-size="124" font-weight="700" fill="#ededed" letter-spacing="-3.5">OpenClaw</text>
    <text y="68" font-family="Switzer, sans-serif" font-size="34" font-weight="400" fill="#ededed" letter-spacing="-0.4">Bridge any chat app to your</text>
    <text y="112" font-family="Switzer, sans-serif" font-size="34" font-weight="400" fill="#ededed" letter-spacing="-0.4">AI coding agent.</text>
    <text y="166" font-family="'JetBrains Mono', monospace" font-size="18" font-weight="400" fill="#9a9aa2" letter-spacing="0.04em">Slack · Discord · iMessage · Matrix · WhatsApp · Teams</text>
  </g>

  <g transform="translate(78 524)">
    <rect width="10" height="10" fill="#f5654a"/>
    <text x="22" y="9" font-family="'JetBrains Mono', monospace" font-size="20" font-weight="700" fill="#ededed">docs.openclaw.ai</text>
    <text x="22" y="40" font-family="'JetBrains Mono', monospace" font-size="16" font-weight="400" fill="#9a9aa2">Install · Quickstart · Channels · Gateway · CLI</text>
  </g>

  <g transform="translate(1122 524)" opacity="0.85" text-anchor="end">
    <text font-family="'JetBrains Mono', monospace" font-size="14" font-weight="700" fill="#4fc8ae" letter-spacing="0.18em">v1 · MIT</text>
    <text y="28" font-family="'JetBrains Mono', monospace" font-size="14" font-weight="400" fill="#9a9aa2">github.com/openclaw/openclaw</text>
  </g>
</svg>
